<svg width="200" height="41" viewBox="0 0 200 41" xmlns="http://www.w3.org/2000/svg" xmlns:xlink="http://www.w3.org/1999/xlink" class="logo__svg">
    <path fill="#69e583" d="M49.758 16.043c0 1.297-1.003 3.094-2.886 3.094h-3.862v-6.148l3.801.015c1.935 0 2.947 1.529 2.947 3.04m-3.134-5.847h-4.9c-.942 0-1.503.554-1.503 1.479v15.966c0 .881.527 1.408 1.408 1.408.866 0 1.382-.526 1.382-1.408v-5.695l3.872-.005c3.727-.017 5.738-3.089 5.738-5.97 0-3.238-2.634-5.775-5.997-5.775"></path>
    <path fill="#69e583" d="M66.024 26.259h-7.205v-14.681c0-.88-.526-1.406-1.407-1.406-.866 0-1.384.526-1.384 1.406v15.583c0 1.2.618 1.888 1.696 1.888h8.3c.881 0 1.408-.526 1.408-1.408 0-.865-.527-1.382-1.408-1.382"></path>
    <path fill="#69e583" d="M100.731 24.697c-.37 0-.686.136-.967.415-.888.888-2.571 1.508-4.091 1.508-3.831 0-5.835-3.539-5.835-7.034 0-3.296 1.819-6.842 5.811-6.842 1.356 0 3.213.485 4.142 1.414.291.286.778.437 1.109.437.789 0 1.383-.635 1.383-1.479 0-.478-.215-.902-.621-1.243-1.668-1.557-4.163-2.111-5.941-2.111-5.82 0-8.865 5.026-8.865 9.991 0 4.696 2.729 9.751 8.721 9.751 2.196 0 4.495-.813 6.007-2.13.352-.32.531-.748.531-1.271 0-.841-.557-1.406-1.384-1.406"></path>
    <path fill="#69e583" d="M116.216 26.259h-7.755v-5.579h6.408c.881 0 1.408-.508 1.408-1.358 0-.897-.527-1.431-1.408-1.431h-6.408v-4.882h7.562c.882 0 1.408-.517 1.408-1.382 0-.88-.526-1.406-1.408-1.406h-8.849c-.941 0-1.503.597-1.503 1.599v15.63c0 1.037.24 1.6 1.503 1.6h9.042c.971 0 1.551-.516 1.551-1.383 0-.423-.151-1.406-1.551-1.406"></path>
    <path fill="#69e583" d="M129.766 18.954c-.392-.184-.781-.366-1.149-.562l-.729-.381c-1.636-.849-3.181-1.652-3.181-2.698 0-1.479 1.341-2.482 2.593-2.49h.035c1.646 0 2.875.677 3.655 1.275l.125.079c.331.213.674.433 1.082.433.757 0 1.374-.653 1.374-1.455 0-.678-.464-1.157-.888-1.516-.376-.288-2.386-1.725-4.995-1.725-3.546 0-6.022 2.259-6.022 5.494 0 2.789 2.811 4.226 5.369 5.533.396.205.813.388 1.225.567 1.734.756 2.73 1.297 2.797 2.792.086 1.909-3.623 3.479-7.028 1.4-.38-.232-.767-.372-1.138-.372-.845 0-1.349.499-1.349 1.335 0 .413.155 1.006.9 1.493 1.342.852 2.852 1.284 4.487 1.284 4.607 0 7.144-1.87 7.144-5.262 0-3.207-2.289-4.279-4.309-5.225"></path>
    <path fill="#69e583" d="M150.23 10.298h-11.949c-.94 0-1.479.512-1.479 1.408 0 .865.554 1.382 1.479 1.382h4.555v14.537c0 .956.535 1.526 1.432 1.526.866 0 1.384-.57 1.384-1.526v-14.537h4.579c.896 0 1.432-.516 1.432-1.382 0-.881-.535-1.408-1.432-1.408"></path>
    <path fill="#69e583" d="M161.466 21.216h-4.623l2.343-6.402 2.281 6.402zm5.208 5.906l-5.626-15.378c-.336-.917-1.003-1.421-1.881-1.421-.876 0-1.544.504-1.882 1.426l-5.441 15.4c-.057.172-.122.401-.122.645 0 .813.517 1.358 1.287 1.358.416 0 1.174-.163 1.571-1.258l1.38-3.893h6.423l1.738 4.239c.221.588.7.913 1.35.913.787 0 1.335-.549 1.335-1.335 0-.142-.018-.419-.132-.695z"></path>
    <path fill="#69e583" d="M179.529 16.128c0 1.195-.801 3.09-2.948 3.09h-3.8v-6.13h3.801c2.146 0 2.947 1.865 2.947 3.04zm-.6 5.267c2.373-.954 3.462-3.363 3.462-5.34 0-2.791-2.104-5.757-6.002-5.757h-4.509c-1.307 0-1.889.663-1.889 2.149v15.099c0 1.449.984 1.605 1.408 1.605.866 0 1.382-.597 1.382-1.598v-5.547h3.213l3.71 6.404c.175.348.539.766 1.281.766.77 0 1.287-.526 1.287-1.311 0-.348-.094-.717-.285-1.097l-3.058-5.373z"></path>
    <path fill="#69e583" d="M198.172 10.298h-11.949c-.94 0-1.479.512-1.479 1.408 0 .865.553 1.382 1.479 1.382h4.555v14.537c0 .956.535 1.526 1.431 1.526.866 0 1.384-.57 1.384-1.526v-14.537h4.579c.896 0 1.431-.516 1.431-1.382 0-.881-.535-1.408-1.431-1.408"></path>
    <path fill="#69e583" d="M79.63 21.155h-4.623l2.343-6.402 2.28 6.402zm5.208 5.906l-5.625-15.376c-.336-.917-1.004-1.421-1.881-1.421-.878 0-1.546.504-1.883 1.426l-5.44 15.398c-.057.171-.122.399-.122.645 0 .813.517 1.358 1.287 1.358.416 0 1.175-.163 1.57-1.258l1.381-3.893h6.423l1.738 4.239c.221.588.701.913 1.35.913.787 0 1.335-.549 1.335-1.334 0-.142-.017-.421-.132-.696z"></path>
    <path fill="#9BBF2E" d="M16.194 30.249h-.124c-1.042-.01-3.206-.411-4.884-.786-.539-.124-1.122.046-1.518.435l-7.185 7.055c-.003-8.368-.005-20.196-.002-20.5.083-7.49 6.228-13.581 13.698-13.581h.091c3.623.023 7.048 1.488 9.642 4.122 2.585 2.623 3.992 6.051 3.96 9.655-.066 7.372-6.329 13.601-13.678 13.601m11.485-24.996c-3.059-3.106-7.105-4.832-11.394-4.862h-.106c-8.822 0-16.079 7.194-16.178 16.032-.004.364 0 14.251.001 20.182l.001 2.26c0 .471.188.905.531 1.222.314.292.722.455 1.15.455.441 0 .857-.171 1.174-.482l8.23-8.078c1.335.284 3.644.735 4.962.748h.144c8.682 0 16.081-7.355 16.158-16.06.038-4.264-1.622-8.32-4.673-11.416"></path>
    <path fill="#9BBF2E" d="M19.623 10.537c-.293-.16-.63-.197-.952-.101-.32.096-.585.309-.744.601-.16.294-.196.632-.102.952.094.32.308.584.602.744 1.521.827 2.467 2.416 2.467 4.145 0 2.601-2.116 4.715-4.718 4.715-2.601 0-4.718-2.114-4.718-4.715 0-1.624.821-3.114 2.196-3.984.58-.37.754-1.144.386-1.727-.179-.282-.457-.478-.783-.551-.326-.069-.66-.013-.942.165-2.103 1.333-3.359 3.612-3.359 6.097 0 3.979 3.239 7.216 7.22 7.216s7.219-3.237 7.219-7.216c0-2.646-1.446-5.076-3.773-6.341"></path>
    <path fill="#9BBF2E" d="M16.025 8.797c-.69 0-1.251.561-1.251 1.251v5.304c0 .69.561 1.251 1.251 1.251.69 0 1.251-.561 1.251-1.251v-5.304c0-.69-.561-1.251-1.251-1.251"></path>
</svg>