<?xml version="1.0" encoding="utf-8"?>
<!-- Generator: Adobe Illustrator 15.1.0, SVG Export Plug-In . SVG Version: 6.00 Build 0)  -->
<!DOCTYPE svg PUBLIC "-//W3C//DTD SVG 1.1//EN" "http://www.w3.org/Graphics/SVG/1.1/DTD/svg11.dtd">
<svg version="1.1" id="Layer_1" xmlns="http://www.w3.org/2000/svg" xmlns:xlink="http://www.w3.org/1999/xlink" x="0px" y="0px"
	 width="182px" height="30px" viewBox="0 0 182 30" enable-background="new 0 0 182 30" xml:space="preserve">
<g>
	<polygon fill="#1E68B2" points="171.442,14.713 181.516,0.67 173.599,0.67 167.528,10.209 161.414,0.67 153.496,0.67 
		163.57,14.713 153.057,29.33 160.975,29.33 167.528,19.173 174.038,29.33 182,29.33 	"/>
	<polygon fill="#1E68B2" points="133.308,0.67 122.75,29.331 129.524,29.331 137.178,7.226 137.354,7.226 145.008,29.331 
		151.957,29.331 141.664,0.67 	"/>
	<polygon fill="#1E68B2" points="34.867,17.053 47.109,17.053 47.109,12.151 34.867,12.151 34.867,5.571 49.778,5.571 49.778,0.67 
		28.005,0.67 28.005,29.33 50.218,29.33 50.218,24.429 34.867,24.429 	"/>
	<path fill="#1E68B2" d="M77.38,2.479c-2.097-1.207-5.565-1.81-10.404-1.81h-12.14v28.66h12.185c5.014,0,8.517-0.573,10.513-1.722
		c1.993-1.148,2.99-3.341,2.99-6.58V9.37C80.524,5.984,79.476,3.688,77.38,2.479z M73.662,21.028c0,1.473-0.499,2.407-1.496,2.805
		c-0.997,0.396-2.814,0.596-5.454,0.596h-5.014V5.571h5.234c2.258,0,3.943,0.265,5.059,0.795c1.113,0.529,1.671,1.486,1.671,2.871
		V21.028z"/>
	<polygon fill="#1E68B2" points="102.869,21.161 95.832,0.67 86.066,0.67 86.066,29.33 92.356,29.33 92.356,8.133 92.533,8.133 
		99.967,29.33 105.465,29.33 112.678,8.133 112.811,8.133 112.811,29.33 119.013,29.33 119.013,0.67 109.819,0.67 	"/>
	<polygon fill="#1E68B2" points="129.779,29.331 144.789,29.331 137.284,21.593 	"/>
	<path fill="#1E68B2" d="M17.839,13.293c-1.519-0.453-3.29-0.706-6.161-1.328c-1.358-0.294-3.086-0.656-4.011-1.299
		C7.116,10.282,6.862,9.73,6.862,9.025c0-0.576,0-1.379,0-1.379c0-0.911,0.425-1.56,1.276-1.943C8.988,5.322,10.542,5.13,12.8,5.13
		c1.642,0,4.692,0.265,9.149,0.794V0.802C18.196,0.42,15.22,0.228,13.02,0.228c-4.545,0-7.851,0.596-9.918,1.788
		C1.034,3.208,0,5.041,0,7.515c0,0,0,1.579,0,2.13c0,1.945,0.888,3.947,2.667,5.103c1.142,0.742,2.588,1.271,3.755,1.534
		c4.462,1.006,7.748,1.703,8.565,2.06c1.306,0.571,1.508,1.445,1.508,2.67c0,0.573,0,0.9,0,0.9c0,1.973-1.908,2.959-5.719,2.959
		c-1.936,0-5.337-0.382-10.205-1.148v5.256c4.018,0.53,7.39,0.795,10.117,0.795c1.964,0,3.658-0.125,5.081-0.375
		c1.422-0.25,2.734-0.678,3.937-1.281c1.202-0.604,2.111-1.486,2.727-2.65c0.616-1.162,0.924-2.598,0.924-4.305c0,0,0-0.371,0-1.346
		C23.357,16.925,21.405,14.354,17.839,13.293z"/>
</g>
</svg>
